<svg width="403" height="403" viewBox="0 0 403 403" fill="none" xmlns="http://www.w3.org/2000/svg">
<path d="M190.713 54.667C193.268 43.1179 209.732 43.1179 212.287 54.667C214.89 66.434 230.566 68.9169 236.678 58.53C242.676 48.3357 258.335 53.4236 257.196 65.1968C256.035 77.1924 270.177 84.3978 279.199 76.408C288.054 68.5662 301.375 78.244 296.654 89.089C291.842 100.139 303.065 111.361 314.115 106.551C324.96 101.829 334.638 115.149 326.796 124.005C318.806 133.027 326.011 147.168 338.007 146.008C349.781 144.868 354.869 160.527 344.674 166.526C334.287 172.638 336.769 188.314 348.537 190.917C360.086 193.471 360.086 209.936 348.537 212.491C336.769 215.093 334.287 230.77 344.674 236.882C354.869 242.88 349.781 258.539 338.007 257.4C326.011 256.239 318.806 270.381 326.796 279.403C334.638 288.258 324.96 301.578 314.115 296.857C303.065 292.046 291.842 303.269 296.654 314.319C301.375 325.163 288.054 334.842 279.199 327C270.177 319.009 256.035 326.216 257.196 338.21C258.335 349.984 242.676 355.072 236.678 344.878C230.566 334.491 214.89 336.974 212.287 348.74C209.732 360.29 193.268 360.29 190.713 348.74C188.11 336.974 172.434 334.491 166.322 344.878C160.324 355.072 144.665 349.984 145.804 338.21C146.965 326.216 132.824 319.009 123.801 327C114.946 334.842 101.625 325.163 106.347 314.319C111.158 303.269 99.9349 292.046 88.8852 296.857C78.0403 301.578 68.3624 288.258 76.2042 279.403C84.1941 270.381 76.9886 256.239 64.9931 257.4C53.2198 258.539 48.1319 242.88 58.3263 236.882C68.7131 230.77 66.2303 215.093 54.4632 212.491C42.9141 209.936 42.9141 193.471 54.4632 190.917C66.2303 188.314 68.7131 172.638 58.3263 166.526C48.1319 160.527 53.2198 144.868 64.9931 146.008C76.9886 147.168 84.1941 133.027 76.2042 124.005C68.3624 115.149 78.0403 101.829 88.8852 106.551C99.9349 111.361 111.158 100.139 106.347 89.089C101.625 78.244 114.946 68.5662 123.801 76.408C132.824 84.3978 146.965 77.1924 145.804 65.1968C144.665 53.4236 160.324 48.3357 166.322 58.53C172.434 68.9169 188.11 66.434 190.713 54.667Z" stroke="#40464F" stroke-width="2"/>
<path d="M199.366 78.3691C199.565 75.7304 203.435 75.7304 203.634 78.3691C204.017 83.4707 211.355 83.8553 212.27 78.8217C212.743 76.2182 216.592 76.6229 216.513 79.2677C216.362 84.3814 223.621 85.531 225.056 80.6207C225.799 78.081 229.585 78.8855 229.229 81.5078C228.544 86.5776 235.643 88.4797 237.583 83.7463C238.587 81.2981 242.268 82.4939 241.641 85.0648C240.43 90.0351 247.291 92.6688 249.716 88.1642C250.97 85.8343 254.506 87.4085 253.614 89.8997C251.889 94.7161 258.437 98.0525 261.319 93.8262C262.81 91.6402 266.162 93.5752 265.015 95.9595C262.796 100.569 268.96 104.572 272.268 100.67C273.98 98.6519 277.111 100.927 275.72 103.178C273.032 107.531 278.743 112.155 282.442 108.621C284.355 106.793 287.23 109.382 285.613 111.476C282.484 115.523 287.68 120.72 291.728 117.592C293.821 115.973 296.411 118.849 294.583 120.762C291.048 124.46 295.673 130.172 300.026 127.483C302.278 126.093 304.553 129.224 302.534 130.935C298.632 134.245 302.634 140.407 307.245 138.189C309.628 137.041 311.563 140.393 309.377 141.884C305.151 144.767 308.488 151.315 313.304 149.59C315.795 148.698 317.37 152.233 315.039 153.488C310.535 155.913 313.169 162.774 318.139 161.562C320.71 160.936 321.906 164.616 319.458 165.62C314.724 167.561 316.626 174.66 321.696 173.974C324.318 173.62 325.123 177.406 322.583 178.148C317.673 179.584 318.822 186.842 323.937 186.69C326.581 186.611 326.986 190.46 324.382 190.933C319.348 191.848 319.733 199.187 324.835 199.57C327.474 199.769 327.474 203.639 324.835 203.837C319.733 204.221 319.348 211.559 324.382 212.474C326.986 212.947 326.581 216.796 323.937 216.717C318.822 216.565 317.673 223.824 322.583 225.26C325.123 226.002 324.318 229.788 321.696 229.434C316.626 228.747 314.724 235.846 319.458 237.788C321.906 238.791 320.71 242.472 318.139 241.846C313.169 240.633 310.535 247.494 315.039 249.92C317.37 251.174 315.795 254.709 313.304 253.818C308.488 252.093 305.151 258.641 309.377 261.524C311.563 263.015 309.628 266.366 307.245 265.218C302.634 263 298.632 269.163 302.534 272.472C304.553 274.183 302.278 277.315 300.026 275.924C295.673 273.236 291.048 278.947 294.583 282.645C296.411 284.558 293.821 287.434 291.728 285.816C287.68 282.687 282.484 287.884 285.613 291.932C287.23 294.026 284.355 296.615 282.442 294.787C278.743 291.252 273.032 295.877 275.72 300.229C277.111 302.481 273.98 304.756 272.268 302.737C268.96 298.836 262.796 302.838 265.015 307.448C266.162 309.833 262.81 311.768 261.319 309.582C258.437 305.355 251.889 308.691 253.614 313.508C254.506 316 250.97 317.573 249.716 315.244C247.291 310.739 240.43 313.373 241.641 318.343C242.268 320.913 238.587 322.109 237.583 319.661C235.643 314.928 228.544 316.83 229.229 321.899C229.585 324.523 225.799 325.326 225.056 322.787C223.621 317.877 216.362 319.026 216.513 324.14C216.592 326.785 212.743 327.189 212.27 324.586C211.355 319.552 204.017 319.937 203.634 325.039C203.435 327.677 199.565 327.677 199.366 325.039C198.983 319.937 191.645 319.552 190.73 324.586C190.257 327.189 186.408 326.785 186.487 324.14C186.638 319.026 179.379 317.877 177.944 322.787C177.201 325.326 173.415 324.523 173.771 321.899C174.456 316.83 167.357 314.928 165.417 319.661C164.413 322.109 160.731 320.913 161.359 318.343C162.57 313.373 155.709 310.739 153.284 315.244C152.03 317.573 148.494 316 149.386 313.508C151.111 308.691 144.563 305.355 141.681 309.582C140.19 311.768 136.838 309.833 137.985 307.448C140.204 302.838 134.04 298.836 130.732 302.737C129.02 304.756 125.889 302.481 127.28 300.229C129.968 295.877 124.257 291.252 120.558 294.787C118.645 296.615 115.77 294.026 117.387 291.932C120.516 287.884 115.32 282.687 111.272 285.816C109.178 287.434 106.589 284.558 108.417 282.645C111.952 278.947 107.327 273.235 102.974 275.924C100.723 277.315 98.448 274.183 100.466 272.472C104.368 269.163 100.365 263 95.7557 265.218C93.3713 266.366 91.4364 263.015 93.6223 261.524C97.8486 258.641 94.5123 252.093 89.6958 253.818C87.2046 254.709 85.6305 251.174 87.9603 249.92C92.465 247.494 89.8312 240.633 84.8609 241.846C82.29 242.472 81.0942 238.791 83.5424 237.788C88.2759 235.846 86.3738 228.747 81.304 229.434C78.6817 229.788 77.8771 226.002 80.4168 225.26C85.3272 223.824 84.1776 216.565 79.0638 216.717C76.419 216.796 76.0143 212.947 78.6179 212.474C83.6515 211.559 83.2669 204.221 78.1652 203.837C75.5266 203.639 75.5266 199.769 78.1652 199.57C83.2669 199.187 83.6515 191.848 78.6179 190.933C76.0143 190.46 76.419 186.611 79.0638 186.69C84.1776 186.842 85.3272 179.584 80.4168 178.148C77.8771 177.406 78.6817 173.62 81.304 173.974C86.3738 174.66 88.2759 167.561 83.5424 165.62C81.0942 164.616 82.29 160.936 84.8609 161.562C89.8314 162.774 92.465 155.913 87.9603 153.488C85.6305 152.233 87.2046 148.698 89.6958 149.59C94.5123 151.315 97.8487 144.767 93.6223 141.884C91.4364 140.393 93.3713 137.041 95.7557 138.189C100.366 140.407 104.368 134.245 100.466 130.935C98.448 129.224 100.723 126.093 102.974 127.483C107.327 130.172 111.952 124.46 108.417 120.762C106.589 118.849 109.178 115.973 111.272 117.592C115.32 120.72 120.516 115.523 117.387 111.476C115.77 109.382 118.645 106.793 120.558 108.621C124.257 112.155 129.968 107.531 127.28 103.178C125.889 100.927 129.02 98.6519 130.732 100.67C134.04 104.572 140.204 100.569 137.985 95.9595C136.838 93.5752 140.19 91.6401 141.681 93.8262C144.563 98.0525 151.111 94.7161 149.386 89.8997C148.494 87.4084 152.03 85.8343 153.284 88.1642C155.709 92.6688 162.57 90.0352 161.359 85.0648C160.731 82.4939 164.413 81.2981 165.417 83.7463C167.357 88.4797 174.456 86.5776 173.771 81.5078C173.415 78.8855 177.201 78.081 177.944 80.6207C179.379 85.531 186.638 84.3814 186.487 79.2677C186.408 76.6229 190.257 76.2182 190.73 78.8217C191.645 83.8553 198.983 83.4706 199.366 78.3691Z" stroke="#40464F" stroke-width="2"/>
<path d="M198.248 99.425C199.018 95.9432 203.982 95.9433 204.752 99.4249L209.249 119.756C210.338 124.679 216.896 125.718 219.453 121.373L230.013 103.426C231.822 100.353 236.542 101.886 236.199 105.436L234.193 126.161C233.708 131.18 239.624 134.195 243.399 130.852L258.987 117.047C261.657 114.683 265.672 117.6 264.249 120.87L255.937 139.962C253.924 144.585 258.619 149.28 263.242 147.267L282.334 138.955C285.604 137.532 288.521 141.547 286.157 144.216L272.351 159.806C269.009 163.58 272.024 169.496 277.042 169.01L297.768 167.005C301.317 166.662 302.852 171.383 299.778 173.191L281.831 183.75C277.486 186.307 278.525 192.866 283.448 193.955L303.779 198.451C307.26 199.222 307.26 204.186 303.779 204.956L283.448 209.453C278.525 210.541 277.486 217.1 281.831 219.657L299.778 230.217C302.852 232.025 301.317 236.746 297.768 236.402L277.042 234.397C272.024 233.911 269.009 239.827 272.351 243.602L286.157 259.191C288.521 261.86 285.604 265.876 282.334 264.452L263.242 256.14C258.619 254.128 253.924 258.824 255.937 263.445L264.249 282.537C265.672 285.807 261.657 288.724 258.987 286.361L243.399 272.556C239.624 269.213 233.708 272.227 234.193 277.246L236.199 297.972C236.542 301.522 231.822 303.055 230.013 299.982L219.453 282.036C216.896 277.689 210.338 278.728 209.249 283.651L204.752 303.983C203.982 307.465 199.018 307.465 198.248 303.983L193.751 283.651C192.662 278.728 186.104 277.689 183.547 282.036L172.987 299.982C171.178 303.055 166.458 301.522 166.801 297.972L168.807 277.246C169.292 272.227 163.376 269.213 159.601 272.556L144.013 286.361C141.343 288.724 137.328 285.807 138.751 282.537L147.063 263.447C149.076 258.824 144.381 254.128 139.758 256.14L120.666 264.452C117.396 265.876 114.479 261.86 116.843 259.191L130.649 243.602C133.991 239.827 130.976 233.911 125.958 234.397L105.232 236.402C101.683 236.746 100.149 232.025 103.222 230.217L121.169 219.657C125.514 217.1 124.476 210.541 119.552 209.453L99.2212 204.956C95.7394 204.186 95.7395 199.222 99.2211 198.451L119.552 193.955C124.475 192.866 125.514 186.307 121.169 183.75L103.222 173.191C100.149 171.383 101.683 166.662 105.232 167.005L125.958 169.01C130.976 169.496 133.991 163.58 130.649 159.806L116.843 144.216C114.479 141.547 117.396 137.532 120.666 138.955L139.758 147.267C144.381 149.28 149.076 144.585 147.063 139.962L138.751 120.87C137.328 117.6 141.343 114.683 144.013 117.047L159.601 130.852C163.376 134.195 169.292 131.18 168.807 126.161L166.801 105.436C166.458 101.886 171.178 100.353 172.987 103.426L183.547 121.373C186.104 125.718 192.662 124.679 193.751 119.756L198.248 99.425Z" stroke="#40464F" stroke-width="2"/>
</svg>
